<svg data-v-0dd9719b="" version="1.0" xmlns="http://www.w3.org/2000/svg" xmlns:xlink="http://www.w3.org/1999/xlink" width="100%" height="100%" viewBox="0 0 340.000000 250.000000" preserveAspectRatio="xMidYMid meet" color-interpolation-filters="sRGB" style="margin: auto;"> <rect data-v-0dd9719b="" x="0" y="0" width="100%" height="100%" fill="#fff" fill-opacity="1" class="background"></rect> <rect data-v-0dd9719b="" x="0" y="0" width="100%" height="100%" fill="url(#watermark)" fill-opacity="1" class="watermarklayer"></rect> <g data-v-0dd9719b="" fill="#333" class="icon-text-wrapper icon-svg-group iconsvg" transform="translate(51.3800048828125,94.87407493591309)"><g class="iconsvg-imagesvg" transform="translate(0,0)"><g><rect fill="#333" fill-opacity="0" stroke-width="2" x="0" y="0" width="60" height="60.25185274447189" class="image-rect"></rect> <svg x="0" y="0" width="60" height="60.25185274447189" filtersec="colorsb7114705359" class="image-svg-svg primary" style="overflow: visible;"><svg xmlns="http://www.w3.org/2000/svg" viewBox="0.0555555559694767 -0.012834787368774414 180.89454650878906 181.65353393554688"><defs><linearGradient id="a307e7cef-c267-4b7b-adb6-d440df313956" y1="90.8" x2="180.95" y2="90.8" gradientUnits="userSpaceOnUse"><stop offset="0" stop-color="#278cff"></stop><stop offset=".49" stop-color="#4ad8b9"></stop><stop offset=".99" stop-color="#5ef084"></stop></linearGradient></defs><path d="M.1 129.51c0-13.33-.1-26.66 0-40C.53 43.12 36.91 4 83.2 1c31.1-2 62.28-.35 93.43-.75 3.21-.05 4.31 1.24 4.3 4.48-.14 31.16.29 62.33-.31 93.47-.72 37.25-31.56 72.5-70.1 81.2a79.89 79.89 0 0 1-18.31 2.13c-11.67-.09-23.33 0-35 0-7.61 0-7.64 0-7.65-7.89v-70a152.19 152.19 0 0 1 .68-17C52.13 70.5 61.14 59.61 76 53.22c3.92-1.68 5-.19 4.93 3.65-.12 12.49.16 25-.13 37.49-.11 4.73 1.59 6 6.07 5.94 12.33-.23 24.66-.11 37-.06 6 0 6.42.81 4.09 6.41a40.52 40.52 0 0 1-37.22 24.89c-11 .1-9.76-1.46-9.82 9.87-.05 8.88 0 8.88 9 8.83 29.45-.18 52.62-18.82 58.77-47.31 1.14-5.27.69-10.62 1-15.94.21-4.07-1.29-5.59-5.48-5.52-12.83.2-25.66-.07-38.49.15-4.25.07-5.8-1-5.69-5.6.34-13.16.12-26.33.15-39.49 0-2.64.05-4.85-3.72-5-33.36-1.6-58 19.33-64 47.42a62.4 62.4 0 0 0-1 12.93v72.48c0 3.49-.18 7-.39 10.48-.41 6.72-.44 6.72-7.35 6.73-6.16 0-12.34-.17-18.49.06-3.85.14-5.21-1.07-5.15-5.11.14-15.68.01-31.35.02-47.01z" fill="url(#a307e7cef-c267-4b7b-adb6-d440df313956)"></path></svg></svg> <!----></g></g> <g transform="translate(67,6.235925674438477)"><g data-gra="path-name" fill-rule="" class="tp-name iconsvg-namesvg"><g transform="scale(1)"><g><path d="M23.92-46.15L23.92-46.15 39.72-5.46Q40.63-3.12 41.76-2.24 42.9-1.36 43.81-1.3L43.81-1.3 43.81 0Q41.86-0.13 39.23-0.16 36.59-0.2 33.93-0.2L33.93-0.2Q30.94-0.2 28.28-0.16 25.61-0.13 24.05 0L24.05 0 24.05-1.3Q27.37-1.43 28.24-2.44 29.12-3.45 27.82-6.76L27.82-6.76 16.77-36.98 17.94-38.68 8.06-12.94Q6.24-8.13 6.27-5.66 6.31-3.19 7.87-2.31 9.43-1.43 12.03-1.3L12.03-1.3 12.03 0Q9.88-0.13 7.93-0.16 5.98-0.2 3.97-0.2L3.97-0.2Q2.54-0.2 1.27-0.16 0-0.13-0.98 0L-0.98 0-0.98-1.3Q0.39-1.56 1.82-3.06 3.25-4.55 4.62-8.13L4.62-8.13 19.44-46.15Q20.48-46.09 21.68-46.09 22.88-46.09 23.92-46.15ZM9.75-18.72L28.47-18.72 28.47-17.42 9.1-17.42 9.75-18.72ZM64.35-46.02L64.35-46.02Q77.16-46.02 83.4-40.2 89.64-34.38 89.64-23.53L89.64-23.53Q89.64-16.45 86.58-11.15 83.53-5.85 77.71-2.93 71.89 0 63.77 0L63.77 0Q62.21 0 59.31-0.1 56.42-0.2 54.28-0.2L54.28-0.2Q51.42-0.2 48.65-0.16 45.89-0.13 44.27 0L44.27 0 44.27-1.3Q46.35-1.43 47.39-1.82 48.43-2.21 48.78-3.38 49.14-4.55 49.14-6.89L49.14-6.89 49.14-39.13Q49.14-41.54 48.78-42.67 48.43-43.81 47.35-44.23 46.28-44.66 44.27-44.72L44.27-44.72 44.27-46.02Q45.89-45.95 48.65-45.86 51.42-45.76 54.15-45.83L54.15-45.83Q56.49-45.89 59.44-45.95 62.4-46.02 64.35-46.02ZM64.29-44.85L64.29-44.85Q61.3-44.85 60.39-43.75 59.48-42.64 59.48-39.26L59.48-39.26 59.48-6.76Q59.48-3.38 60.42-2.27 61.36-1.17 64.35-1.17L64.35-1.17Q69.81-1.17 72.96-3.74 76.12-6.31 77.48-11.25 78.84-16.19 78.84-23.27L78.84-23.27Q78.84-34.19 75.47-39.52 72.09-44.85 64.29-44.85ZM114.53-46.15L114.53-46.15 130.32-5.46Q131.24-3.12 132.37-2.24 133.51-1.36 134.42-1.3L134.42-1.3 134.42 0Q132.47-0.13 129.84-0.16 127.2-0.2 124.54-0.2L124.54-0.2Q121.55-0.2 118.89-0.16 116.22-0.13 114.66 0L114.66 0 114.66-1.3Q117.97-1.43 118.85-2.44 119.73-3.45 118.43-6.76L118.43-6.76 107.38-36.98 108.55-38.68 98.67-12.94Q96.85-8.13 96.88-5.66 96.92-3.19 98.47-2.31 100.03-1.43 102.64-1.3L102.64-1.3 102.64 0Q100.49-0.13 98.54-0.16 96.59-0.2 94.58-0.2L94.58-0.2Q93.14-0.2 91.88-0.16 90.61-0.13 89.64 0L89.64 0 89.64-1.3Q91-1.56 92.43-3.06 93.86-4.55 95.22-8.13L95.22-8.13 110.05-46.15Q111.09-46.09 112.29-46.09 113.49-46.09 114.53-46.15ZM100.36-18.72L119.08-18.72 119.08-17.42 99.71-17.42 100.36-18.72ZM152.43-46.87L152.43-46.87Q156.26-46.87 158.34-46.05 160.42-45.24 161.91-44.33L161.91-44.33Q162.69-43.88 163.18-43.65 163.67-43.42 164.13-43.42L164.13-43.42Q165.17-43.42 165.56-46.28L165.56-46.28 167.05-46.28Q166.99-45.05 166.89-43.32 166.79-41.6 166.76-38.8 166.72-36.01 166.72-31.46L166.72-31.46 165.23-31.46Q164.97-34.84 163.67-38.02 162.37-41.21 160-43.26 157.63-45.3 154.18-45.3L154.18-45.3Q151.06-45.3 149.05-43.55 147.03-41.8 147.03-38.68L147.03-38.68Q147.03-36.08 148.33-34.22 149.63-32.37 152.13-30.62 154.63-28.86 158.21-26.39L158.21-26.39Q161.33-24.38 163.8-22.36 166.27-20.35 167.77-17.81 169.26-15.28 169.26-11.77L169.26-11.77Q169.26-7.48 167.02-4.68 164.78-1.89 161.13-0.49 157.5 0.91 153.14 0.91L153.14 0.91Q149.11 0.91 146.71 0.13 144.3-0.65 142.68-1.5L142.68-1.5Q141.25-2.41 140.47-2.41L140.47-2.41Q139.43-2.41 139.03 0.46L139.03 0.46 137.54 0.46Q137.67-1.1 137.7-3.19 137.74-5.27 137.77-8.61 137.8-11.96 137.8-17.09L137.8-17.09 139.3-17.09Q139.56-12.8 140.76-9.07 141.96-5.33 144.46-3.06 146.97-0.78 151.13-0.78L151.13-0.78Q154.5-0.78 156.84-2.6 159.19-4.42 159.19-8.06L159.19-8.06Q159.19-12.09 156.46-14.72 153.72-17.36 149.44-20.15L149.44-20.15Q146.38-22.16 143.72-24.18 141.05-26.2 139.46-28.8 137.87-31.39 137.87-34.97L137.87-34.97Q137.87-39.07 139.91-41.7 141.96-44.33 145.31-45.6 148.66-46.87 152.43-46.87Z" transform="translate(0.9800000190734863, 46.869998931884766)"></path></g> <!----> <!----> <!----> <!----> <!----> <!----> <!----></g></g> <!----></g></g><defs v-gra="od"></defs></svg>